<svg xmlns="http://www.w3.org/2000/svg" xmlns:xlink="http://www.w3.org/1999/xlink" viewBox="0 0 24 24">
  <defs>
    <linearGradient id="g">
      <stop offset="0" stop-color="#ffecc8" stop-opacity=".1"/>
      <stop offset=".3" stop-color="#ffecc8" stop-opacity="0"/>
      <stop offset="1" stop-color="#ffecc8" stop-opacity="0"/>
    </linearGradient>
    <linearGradient id="h">
      <stop offset="0" stop-color="#eb5e06"/>
      <stop offset="1" stop-opacity="0"/>
    </linearGradient>
    <linearGradient id="f">
      <stop offset="0" stop-color="#ffecc8" stop-opacity=".3"/>
      <stop offset=".3" stop-color="#ffecc8" stop-opacity=".2"/>
      <stop offset="1" stop-color="#ffecc8" stop-opacity="0"/>
    </linearGradient>
    <linearGradient id="e">
      <stop offset="0" stop-color="#ffd100"/>
      <stop offset=".3" stop-color="#ffb501"/>
      <stop offset="1" stop-color="#fe9e01"/>
    </linearGradient>
    <linearGradient id="d">
      <stop offset="0" stop-color="#eb8403"/>
      <stop offset="1" stop-color="#eb8403" stop-opacity="0"/>
    </linearGradient>
    <linearGradient id="a">
      <stop offset="0" stop-color="#ffd100"/>
      <stop offset=".5" stop-color="#ffb501"/>
      <stop offset="1" stop-color="#fe9e01"/>
    </linearGradient>
    <linearGradient id="b">
      <stop offset="0" stop-color="#ffd100"/>
      <stop offset=".5" stop-color="#ffb501"/>
      <stop offset="1" stop-color="#fe9e01"/>
    </linearGradient>
    <linearGradient id="c">
      <stop offset="0" stop-color="#ffd100"/>
      <stop offset=".5" stop-color="#ffb501"/>
      <stop offset="1" stop-color="#fe9e01"/>
    </linearGradient>
    <linearGradient xlink:href="#a" id="i" x1="12" x2="18.8" y1="4" y2="15.8" gradientUnits="userSpaceOnUse"/>
    <linearGradient xlink:href="#b" id="j" x1="20.6" x2="14" y1="12.3" y2="16" gradientTransform="rotate(180 12 526.2)" gradientUnits="userSpaceOnUse"/>
    <linearGradient xlink:href="#c" id="l" x1="7" x2="11.3" y1="1038" y2="1042.2" gradientUnits="userSpaceOnUse"/>
    <linearGradient xlink:href="#d" id="k" x1="18" x2="14.8" y1="1039.3" y2="1039.3" gradientUnits="userSpaceOnUse"/>
    <linearGradient xlink:href="#e" id="n" x1="6" x2="10.2" y1="1038" y2="1042.1" gradientTransform="rotate(180 12 1040.4)" gradientUnits="userSpaceOnUse"/>
    <linearGradient xlink:href="#f" id="m" x1="7.5" x2="18.2" y1="8.8" y2="11.7" gradientUnits="userSpaceOnUse"/>
    <linearGradient xlink:href="#g" id="o" x1="7.5" x2="21.2" y1="8.8" y2="12.5" gradientTransform="translate(0 1028.4)" gradientUnits="userSpaceOnUse"/>
    <linearGradient xlink:href="#h" id="p" x1="6.6" x2="15.9" y1="1038.8" y2="1044.5" gradientUnits="userSpaceOnUse"/>
    <linearGradient xlink:href="#e" id="q" x1="31.4" x2="59.3" y1="1037.7" y2="1037.7" gradientUnits="userSpaceOnUse"/>
  </defs>
  <path fill="#fe9e01" d="M2 12c0-1.4 3.8-8 5-8.7a24 24 0 0 1 10 0c1.2.7 5 7.3 5 8.7 0 1.4-3.8 8-5 8.7a24 24 0 0 1-10 0C5.8 20 2 13.4 2 12z"/>
  <path fill="none" d="M18 12a15 15 0 0 1-3 5.2c-.7.4-5.3.4-6 0A15 15 0 0 1 6 12a15 15 0 0 1 3-5.2c.7-.4 5.3-.4 6 0 .7.4 3 4.4 3 5.2z"/>
  <path fill="url(#i)" fill-rule="evenodd" d="M12 2.8a19.6 19.6 0 0 0-3.7.3c1.7.1 4.3 1 5.5 2A30.3 30.3 0 0 1 18 12c0 1-2.2 4.8-3 5.3l2 3.4a24 24 0 0 0 5-8.6c0-1.4-3.8-8-5-8.7-.6-.3-2.8-.5-5-.5z"/>
  <path fill="url(#j)" fill-rule="evenodd" d="M12 1049.6a19.6 19.6 0 0 0 3.7-.4c-1.7 0-4.3-1-5.5-2a30.3 30.3 0 0 1-4.2-6.8c0-.9 2.2-4.7 3-5.2l-2-3.5a24 24 0 0 0-5 8.7c0 1.4 3.8 8 5 8.6.6.4 2.8.6 5 .6z" transform="translate(0 -1028.4)"/>
  <path fill="url(#k)" d="M18 1040.4a16 16 0 0 1-3 5.2c-.7.4-5.3.4-6 0a16 16 0 0 1-3-5.2c0-.9 2.3-4.8 3-5.2.7-.5 5.3-.5 6 0 .7.4 3 4.3 3 5.2z" transform="translate(0 -1028.4)"/>
  <path fill="url(#l)" d="M9 1035.2c-.7.4-3 4.3-3 5.2a16 16 0 0 0 3 5.2c.7-.5 3-4.4 3-5.2 0-.9-2.3-4.8-3-5.2z" transform="translate(0 -1028.4)"/>
  <path fill="url(#m)" d="M9 6.8c-.8.5-3 4.4-3 5.2a30.3 30.3 0 0 0 2.2 4.3c.7 1.1 1.4 2 2 2.5 1.2 1.1 3.8 2 5.5 2h1l.3-.1c1.2-.7 5-7.3 5-8.7l-4-.1v.1a15 15 0 0 1-3 5.2 15 15 0 0 1-3-5.2 15 15 0 0 0-3-5.2z"/>
  <path fill="url(#n)" d="M15 1045.6c.7-.5 3-4.4 3-5.2 0-.9-2.3-4.8-3-5.2-.7.4-3 4.3-3 5.2a16 16 0 0 0 3 5.2z" transform="translate(0 -1028.4)"/>
  <path fill="url(#o)" stroke="url(#p)" stroke-linecap="round" stroke-linejoin="round" stroke-opacity=".3" stroke-width=".1" d="M18 1040.2h0v.2a16 16 0 0 1-3 5.2 16 16 0 0 1-3-5.2c0-.9-2.3-4.8-3-5.2h0s0 0 0 0c-.8.5-3 4.3-3 5.2a30.3 30.3 0 0 0 2.2 4.3s0 0 0 0 0 0 0 0c.7 1 1.4 2 2 2.5 1.2 1 3.8 2 5.5 2h1l.3-.2" transform="translate(0 -1028.4)"/>
  <g style="line-height:125%" word-spacing="0">
    <path fill="#252127" d="M38.5 1038.7q0 .7-.4 1.3l-.5.7-.7.5-.6.4 2.7 5.4h-2.6l-2.4-5.3h-2.6v5.3H29v-13.4h6.3q1 0 1.6.5l.7.6.5.6q.4.6.4 1.4v2zm-2.3 0v-2.1q-.4-.7-.8-.8h-4v3.7h4l.4-.3.4-.5z" font-family="Blender Pro" font-size="22.5" font-weight="700" letter-spacing="0" style="-inkscape-font-specification:&quot;Blender Pro Bold&quot;" transform="translate(0 -1028.4)"/>
  </g>
  <path fill="url(#q)" fill-rule="evenodd" d="M31.4 1035.8v3.7h25.9l2-3.7h-28z" transform="translate(0 -1028.4)"/>
  <g fill="#252127" font-family="Blender Pro" font-size="22.5" font-weight="700" letter-spacing="0" style="line-height:125%" word-spacing="0">
    <path d="M50.3 1047H48l-.1-.5q-1 .6-1.4.6h-1.7q-1 0-1.7-.4-.6-.5-1-1.1-.4-.6-.4-1.4v-6.9H44v7l.8.7h1.7l.6-.3.7-.6v-6.8h2.3v7.7l.2 2z" style="-inkscape-font-specification:&quot;Blender Pro Bold&quot;" transform="translate(0 -1028.4)"/>
    <path d="M63.2 1047h-2.9l-4.7-5.6h-.2v5.6H53v-13.4h2.4v5.6h.2l2.4-2.8q1.5-2 2.3-2.8h2.9l-5.6 6.7 2.5 3 3.1 3.7z" style="-inkscape-font-specification:&quot;Blender Pro Bold&quot;" transform="translate(0 -1028.4)"/>
  </g>
</svg>
